# xmcd
#
# Track frame offsets:
#	182
#	23905
#	51270
#	82065
#	104707
#	129802
#	146992
#	175077
#	190657
#
# Disc length: 2637 seconds
#
# Revision: 1
# Processed by: cddbd v1.5.2PL0 Copyright (c) Steve Scherf et al.
# Submitted via: audiograbber 1.83.01
#
DISCID=7c0a4b09
DTITLE=Bobby Lyle - The Best of Bobby Lyle
DYEAR=1979
DGENRE=Jazz
TTITLE0=Pisces
TTITLE1=Night Breeze
TTITLE2=Mother Nile
TTITLE3=New Warrior
TTITLE4=Star Traveler
TTITLE5=What Is This Thing Called Love
TTITLE6=For Love
TTITLE7=Blues for Scott Joplin
TTITLE8=I Didn't Know What Time It Was
EXTD=blue note records, CDP 0777 7 89284 2 3
EXTT0=
EXTT1=
EXTT2=
EXTT3=
EXTT4=
EXTT5=
EXTT6=
EXTT7=
EXTT8=
PLAYORDER=
